<?xml version="1.0" encoding="utf-8"?>
<!-- Generator: Adobe Illustrator 17.0.0, SVG Export Plug-In . SVG Version: 6.00 Build 0)  -->
<!DOCTYPE svg PUBLIC "-//W3C//DTD SVG 1.1//EN" "http://www.w3.org/Graphics/SVG/1.1/DTD/svg11.dtd">
<svg version="1.1" id="Layer_1" xmlns="http://www.w3.org/2000/svg" xmlns:xlink="http://www.w3.org/1999/xlink" x="0px" y="0px"
	 width="4096px" height="4096px" viewBox="-1792 -1792 4096 4096" enable-background="new -1792 -1792 4096 4096"
	 xml:space="preserve">
<path d="M1369.366-1169.975C958.938-1291.55,830.051-1061.198,256-1061.198s-702.938-231.266-1113.366-108.777
	c-410.428,121.574-615.185,552.112-808.973,1360.171c-193.788,808.973-158.138,1393.079,70.385,1501.856
	c228.523,108.777,486.298-140.77,732.189-448.82C-664.492,1001.911-564.856,986.372,256,986.372
	c819.942,0,904.953,6.399,1119.765,256.86c245.891,308.05,503.666,557.597,732.189,448.82
	c228.523-108.777,264.173-692.883,70.385-1501.856C1984.551-617.863,1778.88-1047.487,1369.366-1169.975z M-912.212,325.482
	c-198.358,0-359.239-161.795-359.239-361.981c0-199.272,160.88-361.981,359.239-361.981s359.239,162.709,359.239,361.981
	S-713.853,325.482-912.212,325.482z M746.868,141.749c-96.894,0-176.42-79.526-176.42-177.334s79.526-177.334,176.42-177.334
	c97.808,0,177.334,79.526,177.334,177.334C923.288,62.223,844.676,141.749,746.868,141.749z M1132.616,529.325
	c-96.894,0-176.42-79.526-176.42-177.334c0-98.722,79.526-177.334,176.42-177.334c97.808,0,177.334,79.526,177.334,177.334
	C1309.95,450.713,1230.424,529.325,1132.616,529.325z M1132.616-246.741c-96.894,0-176.42-79.526-176.42-177.334
	s79.526-177.334,176.42-177.334c97.808,0,177.334,79.526,177.334,177.334C1309.95-326.267,1230.424-246.741,1132.616-246.741z
	 M1519.277,141.749c-97.808,0-176.42-79.526-176.42-177.334s79.526-177.334,176.42-177.334c96.894,0,176.42,79.526,176.42,177.334
	C1695.697,62.223,1617.085,141.749,1519.277,141.749z"/>
</svg>
