<?xml version="1.0" encoding="utf-8"?>
<!-- Generator: Adobe Illustrator 17.0.0, SVG Export Plug-In . SVG Version: 6.00 Build 0)  -->
<!DOCTYPE svg PUBLIC "-//W3C//DTD SVG 1.1//EN" "http://www.w3.org/Graphics/SVG/1.1/DTD/svg11.dtd">
<svg version="1.1" id="Ebene_1" xmlns="http://www.w3.org/2000/svg" xmlns:xlink="http://www.w3.org/1999/xlink" x="0px" y="0px"
	 width="4096px" height="4096px" viewBox="0 0 4096 4096" enable-background="new 0 0 4096 4096" xml:space="preserve">
<path d="M3329,100c30.985,0,60.115,12.066,82.025,33.975C3432.934,155.885,3445,185.015,3445,216v3664
	c0,30.985-12.066,60.115-33.976,82.024c-21.909,21.91-51.039,33.976-82.024,33.976H697c-30.985,0-60.115-12.066-82.025-33.975
	C593.066,3940.115,581,3910.985,581,3880V216c0-30.985,12.066-60.115,33.975-82.025S666.015,100,697,100H3329 M3329,0H697
	C577.706,0,481,96.706,481,216v3664c0,119.293,96.706,216,216,216h2632c119.293,0,216-96.707,216-216V216
	C3545,96.706,3448.293,0,3329,0L3329,0z"/>
<rect x="835" y="442" width="2432" height="150"/>
<rect x="835" y="760" width="2432" height="150"/>
<rect x="835" y="1078" width="2432" height="150"/>
<rect x="835" y="1396" width="2432" height="150"/>
<rect x="835" y="1714" width="2432" height="150"/>
<rect x="835" y="2032" width="2432" height="150"/>
<path d="M2336.865,3132.836c41.803-8.028,64.592-47.5,50.643-87.716c-13.949-40.216,0.974-95.91,33.162-123.763
	s32.188-73.432,0-101.285s-47.112-83.547-33.162-123.763c13.949-40.216-8.84-79.688-50.643-87.716
	c-41.803-8.028-82.573-48.798-90.601-90.601c-8.028-41.803-47.5-64.592-87.716-50.643s-95.909-0.974-123.763-33.162
	s-73.432-32.188-101.286,0c-27.854,32.188-83.547,47.111-123.763,33.162c-40.216-13.949-79.688,8.84-87.716,50.643
	c-8.028,41.803-48.798,82.573-90.601,90.601c-41.803,8.027-64.592,47.5-50.643,87.716c13.949,40.216-0.974,95.909-33.162,123.763
	s-32.188,73.432,0,101.285s47.112,83.547,33.162,123.763c-13.949,40.216,8.84,79.688,50.643,87.716
	c27.012,5.187,53.579,24.054,71.173,48.029l-160.347,510.457l352.213,91.882l89.393-395.332l89.393,395.332l352.213-91.882
	l-160.174-509.908C2282.873,3157.177,2309.646,3138.063,2336.865,3132.836z"/>
</svg>
