<?xml version="1.0" encoding="utf-8"?>
<!-- Generator: Adobe Illustrator 17.0.0, SVG Export Plug-In . SVG Version: 6.00 Build 0)  -->
<!DOCTYPE svg PUBLIC "-//W3C//DTD SVG 1.1//EN" "http://www.w3.org/Graphics/SVG/1.1/DTD/svg11.dtd">
<svg version="1.1" id="Ebene_1" xmlns:sketch="http://www.bohemiancoding.com/sketch/ns"
	 xmlns="http://www.w3.org/2000/svg" xmlns:xlink="http://www.w3.org/1999/xlink" x="0px" y="0px" width="4096px" height="4096px"
	 viewBox="-2032 -2032 4096 4096" enable-background="new -2032 -2032 4096 4096" xml:space="preserve">
<title></title>
<desc></desc>
<g id="Page-1">
	<g id="icon-139-package">
		<path id="package" fill="#929292" d="M-2031.5-475.52v2457.6h4096v-2457.6H426.1V671.36h-819.2V-475.52H-2031.5L-2031.5-475.52
			L-2031.5-475.52z M-393.1-639.36h-1638.4l819.2-1310.72h983.04L-393.1-639.36L-393.1-639.36z M426.1-639.36h1638.4l-819.2-1310.72
			H262.26L426.1-639.36L426.1-639.36z M-229.26-639.36h491.52L98.42-1950.08H-65.42L-229.26-639.36L-229.26-639.36z M-229.26-475.52
			v983.04h491.52v-983.04H-229.26L-229.26-475.52z M-1703.82,835.2v163.84h1146.88V835.2H-1703.82L-1703.82,835.2z
			 M-1703.82,1490.56v163.84h1146.88v-163.84H-1703.82L-1703.82,1490.56z M-1703.82,1162.88v163.84h819.2v-163.84H-1703.82
			L-1703.82,1162.88z"/>
	</g>
</g>
</svg>
