<?xml version="1.0" encoding="utf-8"?>
<!-- Generator: Adobe Illustrator 17.0.0, SVG Export Plug-In . SVG Version: 6.00 Build 0)  -->
<!DOCTYPE svg PUBLIC "-//W3C//DTD SVG 1.1//EN" "http://www.w3.org/Graphics/SVG/1.1/DTD/svg11.dtd">
<svg version="1.1"
	 id="Ebene_1" xmlns:cc="http://creativecommons.org/ns#" xmlns:dc="http://purl.org/dc/elements/1.1/" xmlns:rdf="http://www.w3.org/1999/02/22-rdf-syntax-ns#"
	 xmlns="http://www.w3.org/2000/svg" xmlns:xlink="http://www.w3.org/1999/xlink" x="0px" y="0px" width="4096px" height="4096px"
	 viewBox="-2036 -2036 4096 4096" enable-background="new -2036 -2036 4096 4096" xml:space="preserve">
<g transform="translate(0 -1028.4)">
	<path fill="#34495E" d="M11.866-1006.826c-69.043,0-137.234,10.284-202.527,26.637c-38.187,9.68-75.01,22.392-111.833,37.292
		c-14.15,5.798-28.623,9.434-42.585,15.982c-5.796,2.699-10.229,7.832-15.974,10.655c-34.641,17.147-68.549,37-101.213,58.602
		c-4.603,2.966-11.439,2.283-15.991,5.327c-9.598,6.587-17.218,14.352-26.629,21.301c-26.748,19.196-54.826,36.823-79.92,58.61
		c-22.878,20.577-42.517,46.438-63.929,69.248c-72.47,74.311-135.291,152.935-186.468,245.078
		c-87.864,154.009-153.464,327.402-181.115,506.096c-13.348-2.813-25.589-3.819-37.3,0
		c-89.518,29.152-111.578,199.203-53.274,378.238c34.215,105.065,91.137,187.781,149.168,234.406
		c77.959,303.075,243.05,555.722,458.158,713.925v175.762l-170.477,170.477l-340.955,170.477
		c-275.713,136.553-550.369,273.616-825.759,410.169c-152.599,92.058-211.648,272.764-197.106,442.219
		c7.103,106.719-31.45,243.271,74.584,314.36c100.735,51.825,220.922,18.071,330.3,26.594c319.918-0.17,639.018,0,958.936,0
		c455.004,0.17,908.815,0,1363.82,0c403.52,0,805.847,0.682,1209.367,0c130.927-9.206,167.239-147.463,154.453-255.716
		c2.387-158.885,11.763-336.864-111.833-458.243c-100.923-102.627-244.465-143.201-367.549-213.097
		c-180.877-89.5-362.776-176.785-543.482-266.286l-340.955-170.477l-170.477-170.477v-175.762
		c215.142-158.203,380.165-410.851,458.243-713.925c57.962-46.643,114.902-129.358,148.997-234.406
		c58.303-179.035,36.312-349.087-53.189-378.238c-11.763-3.819-23.867-2.813-37.335,0
		c-27.617-178.694-93.251-352.087-181.047-506.096c-51.143-92.143-114.049-170.767-186.502-245.078
		c-21.48-22.81-41.085-48.671-63.929-69.248c-1.023-0.938-4.262,0.938-5.285,0c-66.827-59.65-140.985-105.515-218.382-143.84
		c-19.605-9.584-38.698-18.504-58.644-26.637c-14.32-5.798-28.129-10.955-42.619-15.982
		c-43.472-15.084-87.966-29.588-133.313-37.292c-3.41-0.581-7.16,0.537-10.57,0C97.276-1002.844,55.338-1007.294,11.866-1006.826z"
		/>
	<path fill="#2C3E50" d="M-2033.863,2914.156c4.504,51.151,21.567,102.282,74.584,136.39
		c100.735,51.152,220.922,17.044,330.3,34.087h958.936h1363.82h1209.367c98.195-17.043,143.542-85.239,154.453-170.477H-2033.863z"
		/>
</g>
</svg>
