<?xml version="1.0" encoding="utf-8"?>
<!-- Generator: Adobe Illustrator 17.0.0, SVG Export Plug-In . SVG Version: 6.00 Build 0)  -->
<!DOCTYPE svg PUBLIC "-//W3C//DTD SVG 1.1//EN" "http://www.w3.org/Graphics/SVG/1.1/DTD/svg11.dtd">
<svg version="1.1" id="Layer_1" xmlns="http://www.w3.org/2000/svg" xmlns:xlink="http://www.w3.org/1999/xlink" x="0px" y="0px"
	 width="4096px" height="4096px" viewBox="-2036 -2036 4096 4096" enable-background="new -2036 -2036 4096 4096"
	 xml:space="preserve">
<path d="M1637.476-304.593c-69.994-10.072-144.426-73.067-166.107-139.987l-103.966-252.831
	c-32.607-62.311-24.925-159.62,17.072-215.786l169.009-225.004c41.996-56.336,38.753-145.792-8.024-198.372l-185.057-185.398
	c-52.751-46.435-142.036-50.02-198.714-7.682l-224.663,168.668c-56.336,42.338-153.303,50.02-215.786,17.242l-252.66-103.966
	c-67.433-21.51-130.427-95.943-139.987-165.766l-39.948-278.097c-9.731-69.823-75.286-132.817-145.109-140.329
	c0,0-43.533-4.439-131.452-4.439c-87.748,0-131.281,4.439-131.281,4.439c-69.994,7.511-135.549,70.506-145.45,140.329
	l-39.777,278.097c-9.901,69.823-72.896,144.255-139.987,165.766l-252.66,103.966c-62.483,32.607-159.449,25.095-215.786-17.242
	l-225.004-168.839c-56.336-42.338-145.792-38.923-198.543,7.682l-185.057,185.398c-46.435,52.751-50.191,142.036-7.853,198.373
	l168.668,225.004c42.508,56.336,50.02,153.474,17.413,215.786l-104.308,253.002c-21.34,67.091-95.943,130.086-165.766,139.987
	l-278.097,39.435c-69.652,10.072-132.647,75.457-139.987,145.621c0,0-4.609,43.533-4.609,131.452s4.609,131.452,4.609,131.452
	c7.341,70.164,70.335,135.378,139.987,145.45l278.097,39.606c69.652,10.072,144.426,73.067,165.766,139.987l104.308,252.66
	c32.607,62.311,24.925,159.791-17.413,215.786l-168.668,225.004c-42.338,56.336-52.581,132.988-22.535,169.692
	c29.875,37.045,115.575,128.379,115.746,128.72c0.171,0.341,29.193,26.632,64.019,58.726
	c34.826,32.095,177.886,76.652,234.223,34.655l224.834-169.009c56.336-41.996,153.303-50.02,215.786-17.072l252.66,103.966
	c67.262,21.339,130.257,95.943,139.987,165.766l39.777,278.097c9.902,69.652,75.286,132.988,145.45,140.329
	c0,0,43.533,4.609,131.281,4.609c87.919,0,131.452-4.609,131.452-4.609c69.823-7.341,135.378-70.677,145.109-140.329l39.948-278.097
	c9.731-69.652,72.725-144.426,139.987-165.766l252.66-104.308c62.311-32.607,159.449-24.925,215.786,17.413l225.004,169.009
	c56.678,41.996,145.792,38.753,198.714-8.024l184.715-185.057c46.606-53.093,50.02-142.377,8.024-198.714l-169.009-225.004
	c-41.996-55.995-49.679-153.303-17.072-215.786l103.966-252.66c21.681-67.092,95.943-130.086,166.107-139.987l277.756-39.606
	c69.994-10.072,132.988-75.286,140.329-145.45c0,0,4.609-43.533,4.609-131.452s-4.609-131.452-4.609-131.452
	c-7.341-69.994-70.335-135.549-140.329-145.621L1637.476-304.593z M12.085,524.064c-282.877,0-512.149-229.443-512.149-512.149
	c0-282.877,229.272-512.149,512.149-512.149S524.234-270.791,524.234,11.915S294.791,524.064,12.085,524.064z"/>
</svg>
